<mxfile host="app.diagrams.net" modified="2023-04-13T12:12:15.206Z" agent="Mozilla/5.0 (Windows NT 10.0; Win64; x64; rv:109.0) Gecko/20100101 Firefox/111.0" etag="nlvh9ZQ-oX0jTcIPQRUN" version="21.1.7" type="device">
  <diagram name="Seite-1" id="pOqvI1cBqr-qqXXVeGFv">
    <mxGraphModel dx="1430" dy="739" grid="1" gridSize="10" guides="1" tooltips="1" connect="1" arrows="1" fold="1" page="1" pageScale="1" pageWidth="827" pageHeight="1169" math="0" shadow="0">
      <root>
        <mxCell id="0" />
        <mxCell id="1" parent="0" />
        <mxCell id="7EZUv2Cvvfa97A8Y1Qrv-3" style="edgeStyle=orthogonalEdgeStyle;rounded=0;orthogonalLoop=1;jettySize=auto;html=1;entryX=0;entryY=0.5;entryDx=0;entryDy=0;" edge="1" parent="1" source="log30i4Zaj3L8JJohbtZ-29" target="log30i4Zaj3L8JJohbtZ-32">
          <mxGeometry relative="1" as="geometry" />
        </mxCell>
        <mxCell id="log30i4Zaj3L8JJohbtZ-29" value="&lt;font style=&quot;font-size: 18px;&quot;&gt;Start&lt;/font&gt;" style="ellipse;whiteSpace=wrap;html=1;" parent="1" vertex="1">
          <mxGeometry x="110" y="60" width="120" height="80" as="geometry" />
        </mxCell>
        <mxCell id="log30i4Zaj3L8JJohbtZ-45" style="edgeStyle=orthogonalEdgeStyle;rounded=0;orthogonalLoop=1;jettySize=auto;html=1;entryX=0.5;entryY=0;entryDx=0;entryDy=0;" parent="1" source="log30i4Zaj3L8JJohbtZ-30" target="log30i4Zaj3L8JJohbtZ-31" edge="1">
          <mxGeometry relative="1" as="geometry" />
        </mxCell>
        <mxCell id="log30i4Zaj3L8JJohbtZ-47" style="edgeStyle=orthogonalEdgeStyle;rounded=0;orthogonalLoop=1;jettySize=auto;html=1;entryX=0.5;entryY=0;entryDx=0;entryDy=0;" parent="1" source="log30i4Zaj3L8JJohbtZ-30" target="log30i4Zaj3L8JJohbtZ-35" edge="1">
          <mxGeometry relative="1" as="geometry" />
        </mxCell>
        <mxCell id="log30i4Zaj3L8JJohbtZ-30" value="&lt;font style=&quot;font-size: 18px;&quot;&gt;Startseite&lt;/font&gt;" style="rounded=0;whiteSpace=wrap;html=1;" parent="1" vertex="1">
          <mxGeometry x="360" y="190" width="120" height="60" as="geometry" />
        </mxCell>
        <mxCell id="log30i4Zaj3L8JJohbtZ-46" style="edgeStyle=orthogonalEdgeStyle;rounded=0;orthogonalLoop=1;jettySize=auto;html=1;entryX=1;entryY=0.25;entryDx=0;entryDy=0;" parent="1" source="log30i4Zaj3L8JJohbtZ-31" target="log30i4Zaj3L8JJohbtZ-35" edge="1">
          <mxGeometry relative="1" as="geometry" />
        </mxCell>
        <mxCell id="log30i4Zaj3L8JJohbtZ-31" value="&lt;font style=&quot;font-size: 18px;&quot;&gt;Eigenschaften definieren&amp;nbsp;&lt;/font&gt;" style="rounded=0;whiteSpace=wrap;html=1;" parent="1" vertex="1">
          <mxGeometry x="650" y="260" width="120" height="60" as="geometry" />
        </mxCell>
        <mxCell id="7EZUv2Cvvfa97A8Y1Qrv-2" style="edgeStyle=orthogonalEdgeStyle;rounded=0;orthogonalLoop=1;jettySize=auto;html=1;entryX=0.5;entryY=0;entryDx=0;entryDy=0;" edge="1" parent="1" source="log30i4Zaj3L8JJohbtZ-32" target="log30i4Zaj3L8JJohbtZ-30">
          <mxGeometry relative="1" as="geometry" />
        </mxCell>
        <mxCell id="log30i4Zaj3L8JJohbtZ-32" value="&lt;font style=&quot;font-size: 18px;&quot;&gt;Login&lt;/font&gt;" style="rounded=0;whiteSpace=wrap;html=1;" parent="1" vertex="1">
          <mxGeometry x="360" y="70" width="120" height="60" as="geometry" />
        </mxCell>
        <mxCell id="log30i4Zaj3L8JJohbtZ-44" style="edgeStyle=orthogonalEdgeStyle;rounded=0;orthogonalLoop=1;jettySize=auto;html=1;entryX=1;entryY=0.75;entryDx=0;entryDy=0;" parent="1" source="log30i4Zaj3L8JJohbtZ-33" target="log30i4Zaj3L8JJohbtZ-35" edge="1">
          <mxGeometry relative="1" as="geometry">
            <Array as="points">
              <mxPoint x="580" y="455" />
              <mxPoint x="580" y="455" />
            </Array>
          </mxGeometry>
        </mxCell>
        <mxCell id="log30i4Zaj3L8JJohbtZ-33" value="&lt;font style=&quot;font-size: 18px;&quot;&gt;Boni hinzufügen&lt;/font&gt;" style="rounded=0;whiteSpace=wrap;html=1;" parent="1" vertex="1">
          <mxGeometry x="650" y="410" width="120" height="60" as="geometry" />
        </mxCell>
        <mxCell id="log30i4Zaj3L8JJohbtZ-49" style="edgeStyle=orthogonalEdgeStyle;rounded=0;orthogonalLoop=1;jettySize=auto;html=1;entryX=0.25;entryY=0;entryDx=0;entryDy=0;" parent="1" source="log30i4Zaj3L8JJohbtZ-34" target="log30i4Zaj3L8JJohbtZ-35" edge="1">
          <mxGeometry relative="1" as="geometry" />
        </mxCell>
        <mxCell id="log30i4Zaj3L8JJohbtZ-34" value="&lt;font style=&quot;font-size: 18px;&quot;&gt;Daten ansehen&lt;/font&gt;" style="rounded=0;whiteSpace=wrap;html=1;" parent="1" vertex="1">
          <mxGeometry x="180" y="320" width="120" height="60" as="geometry" />
        </mxCell>
        <mxCell id="log30i4Zaj3L8JJohbtZ-39" style="edgeStyle=orthogonalEdgeStyle;rounded=0;orthogonalLoop=1;jettySize=auto;html=1;entryX=0.5;entryY=0;entryDx=0;entryDy=0;" parent="1" source="log30i4Zaj3L8JJohbtZ-35" target="log30i4Zaj3L8JJohbtZ-38" edge="1">
          <mxGeometry relative="1" as="geometry" />
        </mxCell>
        <mxCell id="log30i4Zaj3L8JJohbtZ-43" style="edgeStyle=orthogonalEdgeStyle;rounded=0;orthogonalLoop=1;jettySize=auto;html=1;entryX=0;entryY=0.5;entryDx=0;entryDy=0;" parent="1" source="log30i4Zaj3L8JJohbtZ-35" target="log30i4Zaj3L8JJohbtZ-33" edge="1">
          <mxGeometry relative="1" as="geometry" />
        </mxCell>
        <mxCell id="log30i4Zaj3L8JJohbtZ-48" style="edgeStyle=orthogonalEdgeStyle;rounded=0;orthogonalLoop=1;jettySize=auto;html=1;entryX=0.5;entryY=1;entryDx=0;entryDy=0;" parent="1" source="log30i4Zaj3L8JJohbtZ-35" target="log30i4Zaj3L8JJohbtZ-34" edge="1">
          <mxGeometry relative="1" as="geometry" />
        </mxCell>
        <mxCell id="7EZUv2Cvvfa97A8Y1Qrv-7" style="edgeStyle=orthogonalEdgeStyle;rounded=0;orthogonalLoop=1;jettySize=auto;html=1;entryX=0;entryY=0.5;entryDx=0;entryDy=0;" edge="1" parent="1" source="log30i4Zaj3L8JJohbtZ-35" target="log30i4Zaj3L8JJohbtZ-30">
          <mxGeometry relative="1" as="geometry">
            <Array as="points">
              <mxPoint x="140" y="460" />
              <mxPoint x="140" y="220" />
            </Array>
          </mxGeometry>
        </mxCell>
        <mxCell id="log30i4Zaj3L8JJohbtZ-35" value="&lt;font style=&quot;font-size: 18px;&quot;&gt;Challenge geöffnet&lt;/font&gt;" style="rounded=0;whiteSpace=wrap;html=1;" parent="1" vertex="1">
          <mxGeometry x="360" y="410" width="120" height="60" as="geometry" />
        </mxCell>
        <mxCell id="log30i4Zaj3L8JJohbtZ-36" value="&lt;font style=&quot;font-size: 18px;&quot;&gt;Aktivität hinzufügen&lt;/font&gt;" style="rounded=0;whiteSpace=wrap;html=1;" parent="1" vertex="1">
          <mxGeometry x="580" y="630" width="120" height="60" as="geometry" />
        </mxCell>
        <mxCell id="log30i4Zaj3L8JJohbtZ-42" style="edgeStyle=orthogonalEdgeStyle;rounded=0;orthogonalLoop=1;jettySize=auto;html=1;entryX=0.25;entryY=1;entryDx=0;entryDy=0;" parent="1" source="log30i4Zaj3L8JJohbtZ-37" target="log30i4Zaj3L8JJohbtZ-35" edge="1">
          <mxGeometry relative="1" as="geometry">
            <Array as="points">
              <mxPoint x="170" y="550" />
              <mxPoint x="390" y="550" />
            </Array>
          </mxGeometry>
        </mxCell>
        <mxCell id="log30i4Zaj3L8JJohbtZ-37" value="&lt;font style=&quot;font-size: 18px;&quot;&gt;Challenge beitreten&lt;/font&gt;" style="rounded=0;whiteSpace=wrap;html=1;" parent="1" vertex="1">
          <mxGeometry x="110" y="630" width="120" height="60" as="geometry" />
        </mxCell>
        <mxCell id="log30i4Zaj3L8JJohbtZ-40" style="edgeStyle=orthogonalEdgeStyle;rounded=0;orthogonalLoop=1;jettySize=auto;html=1;entryX=0;entryY=0.5;entryDx=0;entryDy=0;" parent="1" source="log30i4Zaj3L8JJohbtZ-38" target="log30i4Zaj3L8JJohbtZ-36" edge="1">
          <mxGeometry relative="1" as="geometry" />
        </mxCell>
        <mxCell id="log30i4Zaj3L8JJohbtZ-41" style="edgeStyle=orthogonalEdgeStyle;rounded=0;orthogonalLoop=1;jettySize=auto;html=1;entryX=1;entryY=0.5;entryDx=0;entryDy=0;" parent="1" source="log30i4Zaj3L8JJohbtZ-38" target="log30i4Zaj3L8JJohbtZ-37" edge="1">
          <mxGeometry relative="1" as="geometry" />
        </mxCell>
        <mxCell id="log30i4Zaj3L8JJohbtZ-38" value="&lt;font size=&quot;3&quot;&gt;Mitglied?&lt;/font&gt;" style="rhombus;whiteSpace=wrap;html=1;" parent="1" vertex="1">
          <mxGeometry x="380" y="620" width="80" height="80" as="geometry" />
        </mxCell>
        <mxCell id="log30i4Zaj3L8JJohbtZ-53" value="&lt;font style=&quot;font-size: 18px;&quot;&gt;Challenge anlegen&lt;/font&gt;" style="text;html=1;align=center;verticalAlign=middle;resizable=0;points=[];autosize=1;strokeColor=none;fillColor=none;" parent="1" vertex="1">
          <mxGeometry x="525" y="180" width="170" height="40" as="geometry" />
        </mxCell>
        <mxCell id="log30i4Zaj3L8JJohbtZ-54" value="&lt;font style=&quot;font-size: 18px;&quot;&gt;Challenge &lt;br&gt;öffnen&lt;/font&gt;" style="text;html=1;align=center;verticalAlign=middle;resizable=0;points=[];autosize=1;strokeColor=none;fillColor=none;" parent="1" vertex="1">
          <mxGeometry x="414" y="290" width="100" height="60" as="geometry" />
        </mxCell>
        <mxCell id="log30i4Zaj3L8JJohbtZ-55" value="&lt;font style=&quot;font-size: 18px;&quot;&gt;Nein&lt;/font&gt;" style="text;html=1;align=center;verticalAlign=middle;resizable=0;points=[];autosize=1;strokeColor=none;fillColor=none;" parent="1" vertex="1">
          <mxGeometry x="270" y="620" width="60" height="40" as="geometry" />
        </mxCell>
        <mxCell id="log30i4Zaj3L8JJohbtZ-56" value="&lt;font style=&quot;font-size: 18px;&quot;&gt;Ja&lt;/font&gt;" style="text;html=1;align=center;verticalAlign=middle;resizable=0;points=[];autosize=1;strokeColor=none;fillColor=none;" parent="1" vertex="1">
          <mxGeometry x="490" y="620" width="40" height="40" as="geometry" />
        </mxCell>
      </root>
    </mxGraphModel>
  </diagram>
</mxfile>
